<?xml version="1.0" standalone="no"?>
<!DOCTYPE svg PUBLIC "-//W3C//DTD SVG 20010904//EN"
 "http://www.w3.org/TR/2001/REC-SVG-20010904/DTD/svg10.dtd">
<svg version="1.0" xmlns="http://www.w3.org/2000/svg"
 width="256.000000pt" height="254.000000pt" viewBox="0 0 256.000000 254.000000"
 preserveAspectRatio="xMidYMid meet">

<g transform="translate(0.000000,254.000000) scale(0.100000,-0.100000)"
fill="#000000" stroke="none">
<path d="M1137 2459 c-391 -41 -765 -304 -940 -660 -94 -192 -122 -319 -121
-549 0 -154 3 -187 26 -275 124 -486 509 -837 998 -911 668 -100 1289 368
1379 1039 50 367 -80 747 -342 1007 -114 112 -183 162 -322 230 -214 107 -433
145 -678 119z m288 -50 c249 -31 472 -139 662 -322 227 -219 353 -514 353
-826 0 -441 -245 -836 -640 -1036 -706 -356 -1556 89 -1671 875 -7 51 -10 133
-6 214 9 219 69 401 191 586 245 367 671 563 1111 509z"/>
<path d="M1010 2245 c-117 -24 -207 -65 -327 -147 -78 -54 -199 -175 -252
-252 -36 -52 -121 -213 -121 -229 0 -6 23 23 51 64 153 220 478 439 611 412
63 -12 87 -89 45 -139 -25 -28 -48 -32 -122 -19 -34 6 -51 1 -120 -34 -202
-102 -400 -317 -465 -506 -16 -47 -43 -205 -35 -205 1 0 19 26 40 57 82 124
259 273 347 292 40 9 89 -3 105 -26 48 -65 -31 -194 -189 -311 -63 -46 -69
-59 -38 -87 39 -35 88 -7 232 133 66 64 102 93 112 89 23 -9 19 -41 -9 -75
-26 -31 -67 -113 -60 -121 10 -9 209 136 241 176 60 73 96 47 59 -41 -14 -33
-6 -52 11 -25 7 12 130 93 156 102 9 3 24 0 34 -8 18 -13 17 -16 -15 -79 -34
-67 -35 -96 -4 -96 40 0 66 25 80 74 27 92 145 179 211 155 46 -17 22 -78 -63
-158 -31 -29 -54 -55 -51 -58 24 -24 170 65 216 132 26 38 36 46 58 43 29 -3
29 -3 12 -82 -5 -27 -9 -51 -7 -52 2 -2 28 17 57 42 83 69 167 124 188 124 29
0 49 -28 34 -48 -29 -41 -72 -118 -72 -130 0 -22 28 -25 74 -7 48 19 63 43 68
114 3 31 0 35 -29 43 -44 11 -42 35 2 44 90 17 113 -15 95 -133 -7 -46 -10
-87 -7 -90 12 -11 61 9 89 38 l30 30 -5 137 c-5 146 -18 212 -63 308 -107 228
-308 418 -549 518 -47 20 -42 15 50 -49 214 -150 432 -476 401 -600 -16 -64
-101 -88 -145 -41 -21 23 -23 30 -16 94 6 66 5 73 -28 138 -120 238 -364 443
-583 489 -84 18 -246 18 -334 0z m-52 -827 c2 -20 -4 -31 -23 -44 -24 -16 -26
-16 -40 2 -17 23 -18 30 -4 55 16 31 63 22 67 -13z"/>
<path d="M591 1428 c-96 -52 -210 -174 -267 -286 -42 -82 -40 -177 5 -284 93
-221 304 -439 516 -532 32 -15 60 -25 62 -23 1 2 -23 21 -54 43 -77 52 -230
205 -280 279 -22 33 -57 93 -77 133 -61 121 -58 197 8 229 29 14 39 14 66 3
43 -18 50 -36 47 -126 -2 -76 -1 -81 40 -149 128 -216 359 -400 555 -441 90
-20 303 -13 392 11 237 66 490 286 606 530 22 46 40 87 40 91 0 4 -23 -26 -52
-67 -106 -151 -256 -279 -429 -366 -113 -57 -180 -64 -223 -24 -33 31 -35 80
-3 116 24 28 44 32 114 20 35 -6 53 -2 107 23 198 93 402 303 475 489 l20 52
-32 -19 c-43 -26 -103 -27 -117 -1 -5 11 -10 29 -10 41 l0 21 -22 -22 c-37
-35 -105 -61 -139 -54 -54 12 -62 68 -19 148 l20 38 -25 -17 c-14 -9 -30 -25
-36 -35 -16 -30 -148 -139 -169 -139 -27 0 -52 29 -46 54 2 12 8 33 11 48 6
25 4 24 -38 -16 -81 -78 -179 -113 -241 -85 -19 9 -33 8 -63 -4 -35 -14 -78
-21 -110 -18 -28 2 -33 38 -14 100 l19 60 -32 -6 c-44 -9 -81 -37 -127 -99
-25 -34 -47 -54 -59 -54 -28 0 -26 28 9 105 17 36 27 65 25 65 -3 0 -33 -26
-67 -58 -136 -128 -169 -153 -196 -150 -23 3 -26 7 -26 43 0 22 4 53 8 68 7
24 -2 18 -54 -38 -62 -66 -121 -105 -158 -105 -51 0 -111 97 -111 180 0 45 43
69 53 30 4 -18 9 -19 33 -10 69 27 156 128 170 198 6 31 5 32 -28 32 -19 0
-54 -10 -77 -22z"/>
<path d="M1507 1336 c-28 -26 -62 -86 -49 -86 13 0 91 69 102 91 16 28 -20 25
-53 -5z"/>
</g>
</svg>
